<?xml version="1.0" standalone="no"?>
<!DOCTYPE svg PUBLIC "-//W3C//DTD SVG 20010904//EN"
 "http://www.w3.org/TR/2001/REC-SVG-20010904/DTD/svg10.dtd">
<svg version="1.0" xmlns="http://www.w3.org/2000/svg"
 width="700.000000pt" height="700.000000pt" viewBox="0 0 700.000000 700.000000"
 preserveAspectRatio="xMidYMid meet">
<metadata>
Created by potrace 1.11, written by Peter Selinger 2001-2013
</metadata>
<g transform="translate(0.000000,700.000000) scale(0.100000,-0.100000)"
fill="#000000" stroke="none">
<path d="M3155 6984 c-1310 -130 -2435 -983 -2919 -2216 -236 -603 -298 -1301
-170 -1948 206 -1048 895 -1957 1849 -2441 525 -266 1090 -393 1674 -376 426
12 775 80 1151 224 268 103 455 199 695 358 559 371 1000 894 1270 1508 266
602 355 1279 255 1938 -158 1045 -794 1974 -1714 2503 -630 363 -1367 521
-2091 450z m-915 -538 c0 -19 -15 -30 -92 -67 -351 -166 -654 -384 -929 -666
-202 -208 -388 -458 -509 -685 -55 -104 -69 -121 -97 -116 -33 6 -26 47 27
146 117 220 315 491 501 686 273 286 569 503 928 680 107 53 137 64 152 55 10
-5 19 -20 19 -33z m-40 -181 c15 -18 10 -45 -10 -56 -8 -5 -62 -34 -120 -65
-465 -248 -877 -645 -1160 -1117 -47 -79 -55 -88 -79 -85 -55 6 -34 59 109
273 121 181 211 288 389 465 182 182 294 274 491 403 114 74 334 197 356 197
6 0 17 -7 24 -15z m118 -142 c4 -25 4 -25 -163 -114 -247 -132 -453 -286 -666
-499 -185 -185 -298 -329 -430 -545 -68 -112 -92 -133 -119 -100 -16 20 -6 43
77 177 270 436 682 817 1138 1053 117 60 158 67 163 28z m-48 -178 c6 -8 10
-22 8 -31 -2 -9 -64 -53 -138 -98 -230 -138 -382 -259 -570 -452 -151 -156
-273 -314 -384 -500 -68 -115 -87 -139 -106 -139 -48 0 -46 27 10 126 213 374
516 703 870 942 89 60 270 166 286 166 6 1 17 -6 24 -14z m148 -126 c3 -23 -6
-30 -90 -74 -115 -59 -315 -191 -428 -282 -218 -175 -467 -468 -596 -701 -31
-55 -56 -71 -79 -52 -24 20 -18 38 46 144 232 383 605 737 994 943 111 59 148
64 153 22z m-88 -214 c19 -23 6 -41 -61 -82 -119 -73 -303 -217 -412 -322
-178 -172 -328 -370 -444 -587 -60 -113 -84 -134 -113 -99 -12 14 -8 28 28
101 182 366 520 734 882 958 80 49 100 55 120 31z m168 -104 c8 -4 12 -19 10
-32 -2 -17 -26 -36 -101 -78 -275 -157 -552 -418 -727 -686 -86 -131 -89 -135
-110 -135 -33 0 -40 30 -18 75 62 120 231 337 369 471 148 143 281 244 454
343 93 53 101 56 123 42z m147 -151 c9 -29 1 -37 -73 -74 -263 -133 -542 -379
-713 -628 -61 -89 -83 -104 -109 -73 -18 21 -1 55 78 161 174 231 397 429 643
570 119 67 163 79 174 44z m-5 -185 c18 -22 4 -48 -42 -74 -226 -126 -463
-345 -606 -558 -45 -66 -57 -75 -84 -61 -33 16 -19 52 64 163 139 189 330 363
536 491 92 57 112 63 132 39z m78 -156 c3 -23 -5 -31 -62 -63 -220 -123 -478
-381 -601 -601 -33 -58 -41 -66 -64 -63 -45 5 -39 43 26 145 147 234 327 413
561 560 97 61 135 67 140 22z m190 -101 c3 -25 -4 -31 -80 -69 -229 -114 -447
-308 -580 -516 -45 -69 -57 -82 -80 -83 -52 0 -45 32 28 143 47 71 106 141
193 227 133 133 224 201 374 281 104 56 140 60 145 17z m-8 -179 c0 -13 -16
-29 -46 -47 -228 -136 -400 -308 -536 -536 -29 -49 -60 -60 -77 -28 -8 14 -3
31 18 71 108 205 339 438 544 547 66 35 97 33 97 -7z m830 -45 c236 -44 443
-156 621 -333 234 -233 353 -519 353 -851 0 -332 -118 -616 -353 -851 -180
-180 -394 -292 -651 -340 -85 -16 -317 -16 -400 0 -259 49 -472 160 -651 340
-235 234 -353 519 -353 851 0 334 117 615 353 851 206 206 449 321 746 353 68
7 250 -4 335 -20z m1080 -1694 c9 -16 2 -37 -36 -112 -75 -151 -149 -255 -268
-374 -114 -113 -193 -175 -305 -238 -72 -41 -107 -46 -116 -16 -9 28 -3 35 78
81 210 122 388 300 506 507 28 49 51 93 51 98 0 5 9 24 20 42 22 37 54 42 70
12z m88 -188 c7 -50 -135 -259 -272 -401 -45 -45 -125 -116 -179 -157 -154
-117 -207 -136 -207 -75 0 20 9 32 33 46 197 115 447 377 546 573 19 37 26 43
49 40 19 -2 28 -10 30 -26z m178 -17 c10 -24 -2 -54 -58 -152 -141 -245 -359
-473 -585 -612 -43 -27 -56 -30 -73 -21 -38 21 -24 46 58 101 238 159 448 392
568 630 29 58 38 69 59 69 14 0 28 -7 31 -15z m701 -131 c9 -23 -14 -84 -89
-236 -187 -378 -487 -720 -836 -952 -77 -51 -96 -55 -112 -27 -15 30 -6 42 83
101 272 182 515 436 692 720 50 81 128 236 188 373 13 29 22 37 42 37 14 0 28
-7 32 -16z m-609 -6 c20 -20 14 -44 -34 -125 -132 -224 -316 -421 -548 -587
-84 -60 -109 -67 -126 -35 -15 27 -9 34 107 116 115 81 260 217 345 321 51 64
140 193 205 300 15 24 33 28 51 10z m886 -114 c27 -10 18 -47 -37 -171 -227
-506 -609 -935 -1092 -1228 -59 -36 -116 -65 -126 -65 -10 0 -23 10 -30 21
-14 28 -9 33 122 111 180 108 332 230 504 402 254 254 431 510 565 816 54 123
58 128 94 114z m-549 -44 c12 -39 -133 -274 -273 -440 -140 -167 -299 -309
-486 -434 -108 -72 -139 -79 -144 -34 -3 23 8 33 95 91 145 96 245 181 373
314 144 149 264 313 362 492 20 37 63 43 73 11z m385 1 c22 -42 -189 -413
-350 -616 -88 -110 -256 -281 -370 -377 -171 -143 -478 -336 -513 -322 -18 7
-31 39 -23 53 4 5 41 28 84 51 428 230 812 627 1039 1075 36 72 70 136 76 143
14 18 45 15 57 -7z m-626 -17 c27 -11 18 -47 -31 -121 -109 -162 -274 -345
-428 -471 -74 -61 -221 -159 -299 -201 -46 -24 -62 -28 -78 -20 -40 21 -17 50
92 116 278 170 471 357 677 656 33 48 39 52 67 41z m880 -160 c9 -8 16 -18 16
-21 0 -18 -128 -257 -189 -353 -262 -412 -605 -737 -1044 -990 -176 -100 -216
-113 -231 -74 -10 27 6 42 97 88 510 257 939 680 1226 1211 90 168 93 171 125
139z m336 -94 c8 -16 -4 -48 -72 -182 -98 -191 -181 -327 -296 -481 -320 -427
-715 -753 -1194 -988 -106 -52 -130 -60 -143 -49 -8 7 -15 22 -15 34 0 17 29
36 163 103 321 163 549 326 805 577 258 253 447 511 615 843 69 137 86 163
104 163 12 0 27 -9 33 -20z m-205 -30 c14 -45 -198 -400 -365 -610 -107 -135
-355 -383 -490 -490 -213 -169 -575 -385 -609 -363 -9 6 -16 21 -16 34 0 20
18 34 121 89 154 83 219 124 340 212 368 265 687 629 885 1005 29 54 58 108
66 121 17 28 59 30 68 2z"/>
<path d="M3466 3620 c-118 -36 -118 -206 1 -239 92 -26 178 60 152 153 -10 35
-59 86 -84 86 -7 0 -19 2 -27 4 -7 2 -26 0 -42 -4z"/>
</g>
</svg>
